# xmcd
#
# Track frame offsets:
#	150
#	15875
#	31280
#	46852
#	64142
#	79310
#	97890
#	112342
#	126547
#	141307
#
# Disc length: 2025
#
# Revision: 3
# Processed by: cddbd v1.5.1PL0 Copyright (c) Steve Scherf et al.
# Submitted via: DiscPlay 4.0.3
# Normalized: r1:TSWAP
#
DISCID=8607e70a
DTITLE=Various Artist - Universal radio Compilation CD#5
DYEAR=1900
DGENRE=
TTITLE0=Farmer's Daughter - You Said
TTITLE1=Vince Gi; - - You and You Alone
TTITLE2=Mark Chesnutt - Thank God For Believers
TTITLE3=Chely Wright - Shut Up and drive
TTITLE4=Marty Stuart - Sweet Love
TTITLE5=Reba McEntire - What If It's You
TTITLE6=George Strait - Today My World Slipped Away
TTITLE7=Raybon Bros. - The Way She's Looking
TTITLE8=Matraca Berg - That Train Don't Run
TTITLE9=Gary Allan - Living In A House Full Of Love
EXTD=
EXTT0=
EXTT1=
EXTT2=
EXTT3=
EXTT4=
EXTT5=
EXTT6=
EXTT7=
EXTT8=
EXTT9=
PLAYORDER=
